# xmcd
#
# Track frame offsets: 
#        150
#        16248
#        32663
#        48458
#        61602
#        78668
#        96330
#        114040
#        129410
#        142808
#        157930
#        175557
#
# Disc length: 2510 seconds
#
# Revision: 0
# Processed by: cddbd v1.5.2PL0 Copyright (c) Steve Scherf et al.
# Submitted via: ExactAudioCopy v1.3
#
DISCID=8409cc0c
DTITLE=Juliano Cezar - Meu mundo meu sonho
DYEAR=1900
DGENRE=Country
TTITLE0=Meu mundo meu sonho
TTITLE1=Solidão
TTITLE2=Tipo cachorrão
TTITLE3=Grudei
TTITLE4=Bye bye
TTITLE5=Trem bom
TTITLE6=Risca faca
TTITLE7=è isso que a galera quer
TTITLE8=Turma da latinha
TTITLE9=Três whiskys
TTITLE10=faixa 11
TTITLE11=faixa 12
EXTD=
EXTT0=
EXTT1=
EXTT2=
EXTT3=
EXTT4=
EXTT5=
EXTT6=
EXTT7=
EXTT8=
EXTT9=
EXTT10=
EXTT11=
PLAYORDER=
